<?xml version="1.0" encoding="UTF-8" standalone="no"?>
<svg width="321px" height="278px" viewBox="0 0 321 278" version="1.1" xmlns="http://www.w3.org/2000/svg" xmlns:xlink="http://www.w3.org/1999/xlink">
    <!-- Generator: Sketch 3.7.2 (28276) - http://www.bohemiancoding.com/sketch -->
    <title>Group</title>
    <desc>Created with Sketch.</desc>
    <defs>
        <rect id="path-1" x="0" y="0" width="248" height="40" rx="8"></rect>
        <mask id="mask-2" maskContentUnits="userSpaceOnUse" maskUnits="objectBoundingBox" x="0" y="0" width="248" height="40" fill="white">
            <use xlink:href="#path-1"></use>
        </mask>
        <rect id="path-3" x="32" y="72" width="40" height="40"></rect>
        <mask id="mask-4" maskContentUnits="userSpaceOnUse" maskUnits="objectBoundingBox" x="0" y="0" width="40" height="40" fill="white">
            <use xlink:href="#path-3"></use>
        </mask>
        <rect id="path-5" x="32" y="124" width="40" height="40"></rect>
        <mask id="mask-6" maskContentUnits="userSpaceOnUse" maskUnits="objectBoundingBox" x="0" y="0" width="40" height="40" fill="white">
            <use xlink:href="#path-5"></use>
        </mask>
        <rect id="path-7" x="32" y="176" width="40" height="40"></rect>
        <mask id="mask-8" maskContentUnits="userSpaceOnUse" maskUnits="objectBoundingBox" x="0" y="0" width="40" height="40" fill="white">
            <use xlink:href="#path-7"></use>
        </mask>
    </defs>
    <g id="Page-1" stroke="none" stroke-width="1" fill="none" fill-rule="evenodd">
        <g id="Group" stroke="#FFFFFF">
            <path d="M12.0023611,244 C7.5827791,244 4,240.421078 4,235.997639 L4,12.0023611 L4,12.0023611 C4,7.5827791 7.57892156,4 12.0023611,4 L235.997639,4 C240.417221,4 244,7.57892156 244,12.0023611" id="Rectangle-1" stroke-width="8"></path>
            <use id="Rectangle-1-Copy" mask="url(#mask-2)" stroke-width="16" xlink:href="#path-1"></use>
            <use id="Rectangle-3-Copy" mask="url(#mask-4)" stroke-width="16" xlink:href="#path-3"></use>
            <use id="Rectangle-3-Copy-2" mask="url(#mask-6)" stroke-width="16" xlink:href="#path-5"></use>
            <use id="Rectangle-3-Copy-3" mask="url(#mask-8)" stroke-width="16" xlink:href="#path-7"></use>
            <path d="M92,94 L216,94" id="Path-1" stroke-width="8"></path>
            <path d="M92,146 L157,146" id="Path-1-Copy" stroke-width="8"></path>
            <path d="M92,199 L142.08992,199" id="Path-1-Copy-2" stroke-width="8"></path>
            <circle id="Oval-1" stroke-width="8" cx="240" cy="197" r="77"></circle>
            <path d="M191,200 L289,200" id="Path-4" stroke-width="8"></path>
            <path d="M240,148 L240,246" id="Path-4-Copy" stroke-width="8"></path>
            <path d="M11.0226164,244 L179.658004,244" id="Path-7" stroke-width="8"></path>
            <path d="M244,8.55553258 L244,120.466991" id="Path-8" stroke-width="8"></path>
        </g>
    </g>
</svg>